<svg xmlns="http://www.w3.org/2000/svg" id="Layer_1" viewBox="0 0 165.6 165.6"><style>.st9{fill:#ec581e}.st33,.st34{fill:none;stroke:#ec581e;stroke-miterlimit:10}.st34{stroke-dasharray:4,3}</style><path d="M52 73.8h52v26H52z" class="st33"/><path d="M62 71.8v-8h52v26h-8" class="st33"/><path d="M61 95.8c0-3-2-4-5-4v-10c3 0 5-1 5-4h35c0 3 2 4 4 4v10c-2 0-4 1-4 4H61z" class="st33"/><circle cx="78" cy="86.8" r="5" class="st33"/><circle cx="83" cy="82.8" r="60.9" class="st33"/><g><path d="M9.8 82.8h24.6M131.5 82.8h24.7M83 9.6v24.6M83 131.4V156" class="st34"/><path d="M134.7 31.1l-16.8 16.8" class="st33"/><path d="M117.5 44h.7l-.1 3.7 3.7-.1v.7l-4.5.2z" class="st9"/><path d="M48.1 117.7l-16.8 16.8" class="st33"/><path d="M44.2 117.3v.7l3.7-.1-.2 3.7h.8l.2-4.5z" class="st9"/><g><path d="M134.7 134.5l-16.8-16.8" class="st33"/><path d="M121.8 117.3v.7l-3.7-.1.1 3.7h-.7l-.2-4.5z" class="st9"/></g><g><path d="M48.1 47.9L31.3 31.1" class="st33"/><path d="M48.5 44h-.8l.2 3.7-3.7-.1v.7l4.5.2z" class="st9"/></g></g></svg>