<svg xmlns="http://www.w3.org/2000/svg" id="Layer_1" viewBox="0 0 165.6 165.6"><style>.st9{fill:#ec581e}.st33,.st34{fill:none;stroke:#ec581e;stroke-miterlimit:10}.st34{stroke-dasharray:4,3}</style><circle cx="83.1" cy="82.8" r="60.9" class="st33"/><path d="M9.7 82.8h24.6M131.5 82.8h24.6M82.9 9.6v24.6M82.9 131.4V156" class="st34"/><path d="M134.1 31.6l-16.9 16.9" class="st33"/><path d="M130.1 31.2l.1.8 3.6-.2-.1 3.7.8.1.1-4.5z" class="st9"/><path d="M48.6 117.1L31.7 134" class="st33"/><path d="M31.3 130l.8.1-.2 3.7 3.7-.2.1.8-4.5.1z" class="st9"/><g><path d="M134.1 134l-16.9-16.9" class="st33"/><path d="M134.5 130l-.8.1.1 3.7-3.6-.2-.1.8 4.5.1z" class="st9"/></g><g><path d="M48.6 48.5L31.7 31.6" class="st33"/><path d="M35.7 31.2l-.1.8-3.7-.2.2 3.7-.8.1-.1-4.5z" class="st9"/></g><g><circle cx="83.1" cy="67.2" r="10" class="st33"/><path d="M98 94.6v10.9H68V94.6c0-8.3 6.7-15 15-15s15 6.7 15 15zM65.6 99.9H49.9v-8.1c0-6.2 5-11.2 11.2-11.2 3.1 0 5.9 1.3 8 3.3" class="st33"/><circle cx="61.1" cy="70.4" r="7.5" class="st33"/><path d="M100.2 99.9h15.7v-8.1c0-6.2-5-11.2-11.2-11.2-3.1 0-5.9 1.3-8 3.3" class="st33"/><circle cx="104.7" cy="70.4" r="7.5" class="st33"/></g></svg>