<svg xmlns="http://www.w3.org/2000/svg" id="Layer_1" viewBox="0 0 165.6 165.6"><style>.st33,.st34{fill:none;stroke:#ec581e;stroke-miterlimit:10}.st34{stroke-dasharray:4,3}</style><path d="M71.9 91.8v5h22v-5.1c6-3.7 10-10.3 10-17.9 0-11.6-9.4-21-21-21s-21 9.4-21 21c0 7.6 4 14.3 10 18zM78.9 96.8l-3-20M86.9 96.8l3-20" class="st33"/><path d="M75.9 77.8l4 3 3-3 3 3 4-3M71.9 96.8h22v6h-22zM73.9 102.8h18v6h-18zM75.9 108.8h14v6h-14z" class="st33"/><circle cx="82.9" cy="82.8" r="60.9" class="st33"/><g><path d="M9.7 82.8h24.6M131.5 82.8h24.6M82.9 9.6v24.6M82.9 131.4V156" class="st33"/><path d="M134.6 31.1l-17.4 17.4M48.6 117.1l-17.4 17.4M134.6 134.5l-17.4-17.4M48.6 48.5L31.2 31.1" class="st34"/></g></svg>