<svg xmlns="http://www.w3.org/2000/svg" xmlns:xlink="http://www.w3.org/1999/xlink" id="Layer_1" viewBox="0 0 324 324"><style>.st1{fill:#c2e8fa}.st2{fill:#ecdfca}.st4{fill:#f16a2c}.st5{fill:#f26e27}.st6{fill:#27aae1}.st7{fill:none}.st8{fill:#e1d4c2}.st9{fill:#262623}.st10{fill:#323330}.st15{fill:#00aeef}.st17{fill:#fff}.st20{fill:#fff200}.st23{fill:#b3b3b3}.st35{fill:#808285}</style><circle cx="162" cy="162" r="136.5" class="st1"/><defs><circle id="SVGID_5_" cx="162" cy="162" r="136.5"/></defs><clipPath id="SVGID_2_"><use overflow="visible" xlink:href="#SVGID_5_"/></clipPath><g clip-path="url(#SVGID_2_)"><path d="M80.6 344.7h-26c0-23.8 1.7-46.2 4.8-63.3 1.6-8.9 3.5-16 5.8-21.3 5.2-12.1 12.6-14.7 18-14.7v26c3.6 0 6.1-1.9 6.8-2.8-3.4 4.6-9.4 31.6-9.4 76.1zM269.4 344.7h-26c0-44.5-6.1-71.4-9.3-76 .7.9 3.2 2.8 6.8 2.8v-26c5.4 0 12.8 2.5 18 14.7 2.2 5.2 4.2 12.4 5.8 21.3 3 16.9 4.7 39.4 4.7 63.2z" class="st5"/><path d="M105.7 95.7L83.1 76.5v312.7H162V95.7z" class="st4"/><path d="M218.3 95.7l22.6-19.2v312.7H162V95.7z" class="st5"/><path d="M82.8 225.9h158.4v118.7H82.8z" class="st6"/><path d="M83.1 115.1s4.2.7 10.6 3.5c-6.4-2.8-10.6-3.5-10.6-3.5z" class="st2"/><path d="M83.1 115.1s4.2.7 10.6 3.5c-6.4-2.8-10.6-3.5-10.6-3.5z" class="st7"/><path d="M83.1 130.3v65.9l68.7 10.9c-.3-1.7-.6-3.4-1-5.1-3.4-15.5-17.7-61.4-67.7-71.7zm28.5 50.1c-3.2 0-5.9-2.6-5.9-5.9 0-3.2 2.6-5.9 5.9-5.9 3.2 0 5.9 2.6 5.9 5.9 0 3.3-2.7 5.9-5.9 5.9z" class="st2"/><path d="M150.9 202c.3 1.2.5 2.2.6 3-9.6-57.5-40.7-78.8-57.5-86.2-6.5-2.9-10.9-3.7-10.9-3.7v15.2c50 10.3 64.3 56.2 67.8 71.7z" class="st8"/><path d="M149.7 195.8c.9 4 2.1 11.3 2.1 11.3H162v-9.8h-11.9c-.2-.9-.4-1.5-.4-1.5z" class="st9"/><circle cx="111.6" cy="174.6" r="5.9" class="st9"/><path d="M149.7 195.8s.2.7.3 1.5h12v-1.5h-12.3z" class="st10"/><path d="M173.1 202c-.3 1.7-.7 3.4-1 5.1l68.7-10.9v-65.9c-49.9 10.3-64.2 56.2-67.7 71.7zm33.4-27.4c0-3.2 2.6-5.9 5.9-5.9 3.2 0 5.9 2.6 5.9 5.9 0 3.2-2.6 5.9-5.9 5.9-3.2-.1-5.9-2.7-5.9-5.9z" class="st2"/><path d="M173.1 202c-.3 1.2-.5 2.2-.6 3 9.6-57.5 40.7-78.8 57.5-86.2 6.5-2.9 10.9-3.7 10.9-3.7v15.2c-50 10.3-64.3 56.2-67.8 71.7z" class="st8"/><path d="M174.3 195.8c-.9 4-2.1 11.3-2.1 11.3H162v-9.8h11.9c.2-.9.4-1.5.4-1.5z" class="st9"/><circle cx="212.4" cy="174.6" r="5.9" class="st9"/><path d="M174.3 195.8s-.2.7-.3 1.5h-12v-1.5h12.3z" class="st10"/><path d="M219 117.9v8.6h-2.4v-5.7c-.4.3-.8.5-1.1.7s-.8.4-1.4.5v-1.9c.8-.3 1.4-.6 1.9-.9.4-.4.8-.8 1-1.3h2zM221.6 122.3c0-1.6.3-2.7.9-3.4.6-.6 1.5-1 2.7-1 .6 0 1 .1 1.4.2.4.1.7.3.9.6.2.2.4.5.5.7.1.2.2.5.3.9.2.6.2 1.3.2 2 0 1.5-.3 2.7-.8 3.4-.5.7-1.4 1.1-2.7 1.1-.7 0-1.3-.1-1.7-.3-.4-.2-.8-.6-1.1-1-.2-.3-.4-.7-.5-1.3 0-.7-.1-1.3-.1-1.9zm2.3 0c0 1.1.1 1.8.3 2.2.2.4.5.6.8.6.2 0 .4-.1.6-.3.2-.2.3-.4.4-.8s.1-.9.1-1.7c0-1.1-.1-1.9-.3-2.3s-.5-.6-.9-.6-.7.2-.8.6c-.1.5-.2 1.2-.2 2.3z" class="st17"/><g><path d="M229.9 116.9l.9-.1c0 .1.1.2.1.3.1.1.1.1.2.1s.3-.1.3-.2c.1-.1.1-.3.1-.7-.1.1-.2.2-.3.2-.1.1-.2.1-.4.1-.3 0-.5-.1-.7-.3s-.3-.5-.3-.8c0-.2.1-.4.2-.6s.2-.3.4-.4c.2-.1.4-.1.7-.1.3 0 .6.1.8.2.2.1.4.3.5.5s.2.6.2 1c0 .6-.1 1-.4 1.3-.2.3-.6.4-1 .4-.3 0-.5 0-.6-.1-.1-.1-.3-.1-.4-.3s-.2-.3-.3-.5zm1.7-1.5c0-.2 0-.3-.1-.4-.1-.1-.2-.1-.3-.1-.1 0-.2 0-.3.1s-.1.2-.1.4 0 .3.1.4c.1.1.2.1.3.1.1 0 .2 0 .3-.1s.1-.2.1-.4z" class="st17"/></g><g><path d="M200.7 248.2v24.3H194v-15.9c-1.1.8-2.1 1.5-3.2 2-1 .5-2.3 1-3.8 1.5v-5.4c2.3-.7 4-1.6 5.3-2.6 1.2-1 2.2-2.3 2.9-3.8h5.5zM207.9 260.5c0-4.5.8-7.7 2.5-9.5s4.1-2.7 7.5-2.7c1.6 0 2.9.2 4 .6 1 .4 1.9.9 2.5 1.5s1.2 1.3 1.5 2c.4.7.7 1.5.9 2.5.4 1.8.7 3.6.7 5.6 0 4.3-.7 7.5-2.2 9.5-1.5 2-4 3-7.6 3-2 0-3.6-.3-4.9-1-1.2-.6-2.3-1.6-3-2.8-.6-.9-1-2.1-1.3-3.6-.4-1.6-.6-3.3-.6-5.1zm6.6 0c0 3 .3 5.1.8 6.2.5 1.1 1.3 1.7 2.3 1.7.7 0 1.3-.2 1.8-.7s.9-1.2 1.1-2.2c.2-1 .4-2.6.4-4.8 0-3.2-.3-5.3-.8-6.4-.5-1.1-1.3-1.6-2.4-1.6-1.1 0-1.9.6-2.4 1.7-.6 1-.8 3.1-.8 6.1z" class="st17"/></g><g><path d="M228.3 246.8l1.9-.2c0 .3.1.5.3.6.1.1.3.2.4.2.3 0 .5-.2.7-.5.1-.2.2-.7.3-1.5-.2.2-.5.4-.7.5-.2.1-.5.2-.8.2-.6 0-1.1-.2-1.6-.7-.4-.4-.6-1-.6-1.7 0-.5.1-.9.3-1.2s.5-.7.9-.9c.4-.2.9-.3 1.4-.3.7 0 1.2.1 1.7.4.4.2.7.6 1 1.1s.4 1.2.4 2c0 1.2-.3 2.2-.8 2.7-.5.6-1.2.9-2.2.9-.5 0-1-.1-1.3-.2s-.6-.3-.8-.6c-.2-.1-.3-.5-.5-.8zm3.6-3.1c0-.4-.1-.7-.3-.9-.2-.2-.4-.3-.7-.3-.3 0-.5.1-.6.3-.2.2-.3.5-.3.9s.1.7.3.9c.2.2.4.3.7.3.3 0 .5-.1.7-.3.1-.2.2-.5.2-.9z" class="st17"/></g><g><path d="M103.7 112.4L83.1 95.7v19.4l20.6 18.1"/></g><g><path d="M220.3 112.4l20.6-16.7v19.4l-20.6 18.1"/></g><g><path d="M162.1 91.6c-26.9 0-49.7 8.3-58.3 19.9v20.4c7.8 10.6 27.5 18.4 51.3 19.7.8-1.6 1.6-3.6 2.5-5.9 0 0 .8-2.2 4.5-2.8 3.8.6 4.5 2.8 4.5 2.8.9 2.3 1.7 4.3 2.5 5.9 23.8-1.3 43.5-9.1 51.3-19.7v-20.4c-8.6-11.6-31.5-19.9-58.3-19.9z"/><path d="M166.4 156.2l-1.3-2.7c-.9-1.8-1.7-3.7-2.5-5.8-.1-.1-.3-.1-.5-.2-.3.1-.4.2-.5.2-.8 2.1-1.6 4-2.5 5.8l-1.3 2.7-3-.2c-24.9-1.4-45.8-9.6-54.7-21.5l-.9-1.2V110l.9-1.2c9.8-13.2 34.1-21.7 62-21.7s52.2 8.5 62 21.7l.9 1.2v23.3l-.9 1.2c-8.8 11.9-29.8 20.1-54.7 21.5l-3 .2zm4.4-12.2c.4 1 .7 1.9 1.1 2.8 19.8-1.6 36.6-7.9 44-16.6V113c-8.6-10-30.4-17-53.8-17s-45.3 6.9-53.9 17v17.2c7.4 8.6 24.2 15 44 16.6.4-.9.8-1.8 1.1-2.8.8-2.2 3.4-5 8.1-5.6l.7-.1.7.1c4.6.7 7.2 3.4 8 5.6z" class="st35"/></g><g><path d="M110.9 116.8s4-5.9 17.9-11c0 0-9.4 5.2-15 11h-2.9z" class="st17"/></g><g><path d="M247.7 316.7h-13.6c-3.7 0-6.8 3.1-6.8 6.8v32.2c0 3.7 3.1 6.8 6.8 6.8h13.6c3.7 0 6.8-3.1 6.8-6.8v-32.2c0-3.7-3.1-6.8-6.8-6.8zm-15.6 41.9c-.5 0-.9-.4-.9-.9s.4-.9.9-.9.9.4.9.9-.4.9-.9.9zm0-4.4c-.5 0-.9-.4-.9-.9s.4-.9.9-.9.9.4.9.9-.4.9-.9.9zm0-3.9c-.5 0-.9-.4-.9-.9s.4-.9.9-.9.9.4.9.9-.4.9-.9.9zm0-4.4c-.5 0-.9-.4-.9-.9s.4-.9.9-.9.9.4.9.9-.4.9-.9.9zm0-4.4c-.5 0-.9-.4-.9-.9s.4-.9.9-.9.9.4.9.9-.4.9-.9.9zm5.4 16.7c-.3.4-.8.5-1.2.2-.4-.3-.5-.8-.2-1.2.3-.4.8-.5 1.2-.2.4.2.5.8.2 1.2zm0-4.4c-.3.4-.8.5-1.2.2-.4-.3-.5-.8-.2-1.2.3-.4.8-.5 1.2-.2.4.3.5.8.2 1.2zm0-3.9c-.3.4-.8.5-1.2.2-.4-.3-.5-.8-.2-1.2.3-.4.8-.5 1.2-.2.4.2.5.8.2 1.2zm0-4.4c-.3.4-.8.5-1.2.2-.4-.3-.5-.8-.2-1.2.3-.4.8-.5 1.2-.2.4.2.5.8.2 1.2zm0-4.4c-.3.4-.8.5-1.2.2-.4-.3-.5-.8-.2-1.2.3-.4.8-.5 1.2-.2.4.3.5.8.2 1.2zm4.2 17.1c-.3.4-.8.5-1.2.2-.4-.3-.5-.8-.2-1.2s.8-.5 1.2-.2c.4.2.5.8.2 1.2zm0-4.4c-.3.4-.8.5-1.2.2-.4-.3-.5-.8-.2-1.2s.8-.5 1.2-.2c.4.3.5.8.2 1.2zm0-3.9c-.3.4-.8.5-1.2.2-.4-.3-.5-.8-.2-1.2s.8-.5 1.2-.2c.4.2.5.8.2 1.2zm0-4.4c-.3.4-.8.5-1.2.2-.4-.3-.5-.8-.2-1.2s.8-.5 1.2-.2c.4.2.5.8.2 1.2zm0-4.4c-.3.4-.8.5-1.2.2-.4-.3-.5-.8-.2-1.2s.8-.5 1.2-.2c.4.3.5.8.2 1.2zm.8-4.1h-3.2v-3.2h3.2v3.2zm2.5 21.6c-.5 0-.9-.4-.9-.9s.4-.9.9-.9.9.4.9.9-.4.9-.9.9zm0-4.4c-.5 0-.9-.4-.9-.9s.4-.9.9-.9.9.4.9.9-.4.9-.9.9zm0-3.9c-.5 0-.9-.4-.9-.9s.4-.9.9-.9.9.4.9.9-.4.9-.9.9zm0-4.4c-.5 0-.9-.4-.9-.9s.4-.9.9-.9.9.4.9.9-.4.9-.9.9zm0-4.4c-.5 0-.9-.4-.9-.9s.4-.9.9-.9.9.4.9.9-.4.9-.9.9zm1-9.8h-10.2v-10.2H246v10.2zm4.4 26.5c-.3.4-.8.5-1.2.2-.4-.3-.5-.8-.2-1.2.3-.4.8-.5 1.2-.2.4.2.5.8.2 1.2zm0-4.4c-.3.4-.8.5-1.2.2-.4-.3-.5-.8-.2-1.2.3-.4.8-.5 1.2-.2.4.3.5.8.2 1.2zm0-3.9c-.3.4-.8.5-1.2.2-.4-.3-.5-.8-.2-1.2.3-.4.8-.5 1.2-.2.4.2.5.8.2 1.2zm0-4.4c-.3.4-.8.5-1.2.2-.4-.3-.5-.8-.2-1.2.3-.4.8-.5 1.2-.2.4.2.5.8.2 1.2zm0-4.4c-.3.4-.8.5-1.2.2-.4-.3-.5-.8-.2-1.2.3-.4.8-.5 1.2-.2.4.3.5.8.2 1.2zm-.3-11c-.5 0-.9-.4-.9-.9s.4-.9.9-.9.9.4.9.9-.4.9-.9.9zm0-3.4c-.5 0-.9-.4-.9-.9s.4-.9.9-.9.9.4.9.9-.4.9-.9.9zm0-3.4c-.5 0-.9-.4-.9-.9s.4-.9.9-.9.9.4.9.9-.4.9-.9.9z" class="st15"/><path d="M235.8 321.6H246v10.2h-10.2z" class="st23"/><circle cx="250.1" cy="322.5" r=".9" class="st20"/></g><g><path d="M189.9 322.8l-15.8 15.8" class="st7"/></g></g></svg>