<svg xmlns="http://www.w3.org/2000/svg" xmlns:xlink="http://www.w3.org/1999/xlink" width="35" height="35" version="1.1" viewBox="0 0 35 35"><title>tab-icon-info-active</title><desc>Created with Sketch.</desc><defs><path id="path-1" d="M35,18.030303 C35,27.1649485 27.164708,35 16.969697,35 C7.83421804,35 0,27.1649485 0,18.030303 C0,7.83505155 7.83421804,0 16.969697,0 C27.164708,0 35,7.83505155 35,18.030303 L35,18.030303 Z"/><mask id="mask-2" width="35" height="35" x="0" y="0" fill="#fff" maskContentUnits="userSpaceOnUse" maskUnits="objectBoundingBox"><use xlink:href="#path-1"/></mask></defs><g id="Page-1" fill="none" fill-rule="evenodd" stroke="none" stroke-width="1"><g id="tab-icon-info-active"><g id="Group-2"><use id="Stroke-1" stroke="#365A93" stroke-width="4" mask="url(#mask-2)" xlink:href="#path-1"/><path id="Fill-3" fill="#365A93" d="M15.9090909,25.4545455 L19.0909091,25.4545455 L19.0909091,14.8484848 L15.9090909,14.8484848 L15.9090909,25.4545455 Z M19.0909091,11.1466485 C19.0909091,12.0289833 18.4384957,12.7272727 17.4900992,12.7272727 C16.5615043,12.7272727 15.9090909,12.0289833 15.9090909,11.1466485 C15.9090909,10.243744 16.5615043,9.54545455 17.4900992,9.54545455 C18.4384957,9.54545455 19.0909091,10.243744 19.0909091,11.1466485 L19.0909091,11.1466485 Z"/></g></g></g></svg>