<svg xmlns="http://www.w3.org/2000/svg" xmlns:xlink="http://www.w3.org/1999/xlink" id="Layer_1" x="0" y="0" enable-background="new 0 0 204 136.5" version="1.1" viewBox="0 0 204 136.5" xml:space="preserve"><style type="text/css">.st0{fill:#fff}</style><g><path d="M0,0v136.5h204V0H0z M200,4v18.2H4V4H200z M4,132.5V26.2h196v106.4H4z" class="st0"/><circle cx="13.7" cy="12.9" r="3" class="st0"/><circle cx="23" cy="12.9" r="3" class="st0"/><circle cx="32.3" cy="12.9" r="3" class="st0"/><polygon points="71.7 78.3 88.2 85.6 88.2 81.6 76.8 77 88.2 71.7 88.2 67.7 71.7 76" class="st0"/><polygon points="96 89 100.6 89 109.6 64.7 105 64.7" class="st0"/><polygon points="117.4 71.7 128.7 77 117.4 81.6 117.4 85.6 133.8 78.3 133.8 76 117.4 67.7" class="st0"/></g></svg>