<svg xmlns="http://www.w3.org/2000/svg" xmlns:xlink="http://www.w3.org/1999/xlink" id="Layer_1" x="0" y="0" enable-background="new 0 0 44 50" version="1.1" viewBox="0 0 44 50" xml:space="preserve"><style type="text/css">.st0{filter:url(#Adobe_OpacityMaskFilter)}.st1{fill:#fff}.st2{mask:url(#mask-2);fill:#3379ac}</style><title>icon-afterschool</title><desc>Created with Sketch.</desc><g id="Page-1"><g id="icon-afterschool"><defs><filter id="Adobe_OpacityMaskFilter" width="43" height="50" x="0" y="0" filterUnits="userSpaceOnUse"><feColorMatrix type="matrix" values="1 0 0 0 0 0 1 0 0 0 0 0 1 0 0 0 0 0 1 0"/></filter></defs><mask id="mask-2" width="43" height="50" x="0" y="0" maskUnits="userSpaceOnUse"><g class="st0"><path id="path-1" d="M0,0h43v50H0V0z" class="st1"/></g></mask><path id="Fill-1" d="M42,47.5c0,0.8-0.7,1.5-1.5,1.5H9.3V1h31.3C41.4,1,42,1.7,42,2.5 V47.5z M2.4,47.5v-5.8h3.3c0.3,0,0.5-0.2,0.5-0.5S6,40.8,5.7,40.8H2.4v-2.2h3.3c0.3,0,0.5-0.2,0.5-0.5c0-0.3-0.2-0.5-0.5-0.5H2.4 v-2.2h3.3c0.3,0,0.5-0.2,0.5-0.5c0-0.3-0.2-0.5-0.5-0.5H2.4v-2.2h3.3c0.3,0,0.5-0.2,0.5-0.5c0-0.3-0.2-0.5-0.5-0.5H2.4V18.8h3.3 c0.3,0,0.5-0.2,0.5-0.5c0-0.3-0.2-0.5-0.5-0.5H2.4v-2.2h3.3c0.3,0,0.5-0.2,0.5-0.5S6,14.6,5.7,14.6H2.4v-2.2h3.3 c0.3,0,0.5-0.2,0.5-0.5S6,11.4,5.7,11.4H2.4V9.2h3.3C6,9.2,6.2,9,6.2,8.7c0-0.3-0.2-0.5-0.5-0.5H2.4V2.5C2.4,1.7,3.1,1,3.9,1h4.4 v48H3.9C3.1,49,2.4,48.3,2.4,47.5L2.4,47.5z M40.6,0H3.9C2.5,0,1.4,1.1,1.4,2.5v5.8H0.5C0.2,8.2,0,8.5,0,8.7C0,9,0.2,9.2,0.5,9.2 h0.9v2.2H0.5c-0.3,0-0.5,0.2-0.5,0.5s0.2,0.5,0.5,0.5h0.9v2.2H0.5c-0.3,0-0.5,0.2-0.5,0.5s0.2,0.5,0.5,0.5h0.9v2.2H0.5 C0.2,17.8,0,18,0,18.3c0,0.3,0.2,0.5,0.5,0.5h0.9v12.4H0.5c-0.3,0-0.5,0.2-0.5,0.5c0,0.3,0.2,0.5,0.5,0.5h0.9v2.2H0.5 c-0.3,0-0.5,0.2-0.5,0.5c0,0.3,0.2,0.5,0.5,0.5h0.9v2.2H0.5c-0.3,0-0.5,0.2-0.5,0.5c0,0.3,0.2,0.5,0.5,0.5h0.9v2.2H0.5 C0.2,40.8,0,41,0,41.3s0.2,0.5,0.5,0.5h0.9v5.8c0,1.4,1.1,2.5,2.5,2.5h36.7c1.4,0,2.5-1.1,2.5-2.5V2.5C43,1.1,41.9,0,40.6,0 L40.6,0z" class="st2"/></g></g></svg>