<svg xmlns="http://www.w3.org/2000/svg" xmlns:xlink="http://www.w3.org/1999/xlink" width="60" height="77" version="1.1" viewBox="0 0 60 77"><title>icon-curriculum</title><desc>Created with Sketch.</desc><g id="Page-1" fill="none" fill-rule="evenodd" stroke="none" stroke-width="1"><g id="Clubs-Page" transform="translate(-410.000000, -1757.000000)"><g id="icon-curriculum" transform="translate(412.000000, 1758.000000)"><path id="Shape" stroke="#EABEC8" stroke-width="3" d="M56.3347595,68.7590588 C56.3347595,71.6443333 54.0085823,73.9825882 51.1398228,73.9825882 L5.25193671,73.9825882 C2.3824557,73.9825882 0.057,71.6436078 0.057,68.7590588 L0.057,5.93160784 C0.057,3.04633333 2.38317722,0.708078431 5.25193671,0.708078431 L51.1398228,0.708078431 C54.0093038,0.708078431 56.3347595,3.04705882 56.3347595,5.93160784 L56.3347595,68.7590588 L56.3347595,68.7590588 Z"/><path id="Shape" stroke="#EABEC8" stroke-width="3" d="M11.1597342,48.509902 L45.9650886,48.509902"/><path id="Shape" stroke="#EABEC8" stroke-width="3" d="M11.1597342,54.6765686 L45.9650886,54.6765686"/><path id="Shape" stroke="#EABEC8" stroke-width="3" d="M11.1597342,60.8432353 L45.9650886,60.8432353"/><path id="Shape" stroke="#EABEC8" stroke-width="3" d="M11.1597342,14.6679608 L45.9650886,14.6679608"/><path id="Shape" stroke="#EABEC8" stroke-width="3" d="M11.1597342,20.8346275 L34.180519,20.8346275"/><rect id="Rectangle-path" width="32.639" height="12.333" x="12.121" y="28.471" stroke="#EABEC8" stroke-width="3"/><g id="Group" fill="#EABEC8" transform="translate(38.962025, 0.725490)"><path id="Shape" d="M7.72458228,15.4819608 L0.509392405,21.6486275 L0.509392405,0.246666667 L7.72458228,0.246666667 L7.72458228,15.4819608 Z"/><path id="Shape" d="M3.39546835,15.4819608 L10.6106582,21.6486275 L10.6106582,0.246666667 L3.39546835,0.246666667 L3.39546835,15.4819608 Z"/></g></g></g></g></svg>