<svg xmlns="http://www.w3.org/2000/svg" xmlns:xlink="http://www.w3.org/1999/xlink" width="127" height="94" version="1.1" viewBox="0 0 127 94"><title>icon-add-event</title><desc>Created with Sketch.</desc><g id="Page-1" fill="none" fill-rule="evenodd" stroke="none" stroke-width="1"><g id="Events-Page" transform="translate(-992.000000, -2011.000000)"><g id="icon-add-event" transform="translate(993.000000, 2013.000000)"><g id="Group" stroke="#D4E0F9" stroke-width="2.5" transform="translate(35.000000, 33.000000)"><ellipse id="Oval" cx="28.252" cy="28.808" rx="10.471" ry="27.996"/><ellipse id="Oval" cx="28.253" cy="28.808" rx="27.996" ry="10.472"/><ellipse id="Oval" cx="28.254" cy="28.807" rx="10.473" ry="27.996" transform="translate(28.254367, 28.807160) rotate(135.000000) translate(-28.254367, -28.807160)"/><ellipse id="Oval" cx="28.253" cy="28.809" rx="10.473" ry="27.996" transform="translate(28.253341, 28.809067) rotate(225.000000) translate(-28.253341, -28.809067)"/></g><g id="Group"><g fill="#D4E0F9" transform="translate(9.000000, 37.000000)"><circle id="Oval" cx="5.902" cy="27.268" r="5"/><path id="Shape" stroke="#D4E0F9" stroke-width="2" d="M5.902,0.284 L5.902,30.267"/></g><g stroke="#D4E0F9" stroke-width="3"><path id="Shape" d="M28.344,14.082 C28.344,6.35 22.216,0.082 14.656,0.082 C7.096,0.082 0.968,6.35 0.968,14.082 C0.968,18.023 3.501,24.213 6.502,28.089 C11.183,34.133 14.655,38.451 14.655,38.451 C14.655,38.451 18.362,33.769 21.998,28.998 C25.596,24.277 28.344,17.951 28.344,14.082 L28.344,14.082 Z"/><ellipse id="Oval" cx="14.656" cy="13.984" rx="6.97" ry="7.129"/></g></g><g id="Group"><g fill="#D4E0F9" transform="translate(96.000000, 20.000000) translate(9.000000, 37.000000)"><circle id="Oval" cx="5.903" cy="27.269" r="5"/><path id="Shape" stroke="#D4E0F9" stroke-width="2" d="M5.903,0.285 L5.903,30.268"/></g><g stroke="#D4E0F9" stroke-width="3" transform="translate(96.000000, 20.000000)"><path id="Shape" d="M28.345,14.083 C28.345,6.351 22.217,0.083 14.657,0.083 C7.097,0.083 0.969,6.351 0.969,14.083 C0.969,18.024 3.502,24.214 6.503,28.09 C11.184,34.134 14.656,38.452 14.656,38.452 C14.656,38.452 18.363,33.77 21.999,28.999 C25.597,24.278 28.345,17.952 28.345,14.083 L28.345,14.083 Z"/><ellipse id="Oval" cx="14.657" cy="13.985" rx="6.97" ry="7.129"/></g></g></g></g></g></svg>