<svg xmlns="http://www.w3.org/2000/svg" xmlns:xlink="http://www.w3.org/1999/xlink" width="18" height="22" version="1.1" viewBox="0 0 18 22"><title>icon activities</title><desc>Created with Sketch.</desc><g id="Page-1" fill="none" fill-rule="evenodd" stroke="none" stroke-width="1"><g id="icon-activities" fill="#FFF"><path id="Fill-1" d="M16.809,20.987 L16.809,20.486 L16.809,20.987 L17.309,20.987 L16.809,20.987 L16.809,20.987 Z M13.933,1.486 L13.933,0.987 L14.931,0.987 L14.931,1.486 L16.309,1.486 L16.309,20.486 L1.868,20.486 L1.868,1.486 L9.617,1.486 L9.617,0.987 L10.617,0.987 L10.617,1.486 L13.933,1.486 L13.933,1.486 Z M0.869,21.486 L17.309,21.486 L17.309,0.487 L0.869,0.487 L0.869,21.486 Z"/><path id="Fill-2" d="M14.931,0.987 L13.933,0.987 L13.933,1.486 L13.931,7.658 L12.275,6.525 L10.617,7.657 L10.617,0.987 L9.617,0.987 L9.617,9.551 L12.275,7.735 L14.931,9.553 L14.931,0.987"/></g></g></svg>