<svg xmlns="http://www.w3.org/2000/svg" xmlns:xlink="http://www.w3.org/1999/xlink" id="Layer_1" x="0" y="0" enable-background="new 0 0 100 100" version="1.1" viewBox="0 0 100 100" xml:space="preserve"><g><path fill="none" stroke="#1391D0" stroke-miterlimit="10" stroke-width="2.1" d="M78,80.5c0,2.8-2.3,5-5,5H28.5c-2.8,0-5-2.3-5-5 V19.9c0-2.8,2.3-5,5-5H73c2.8,0,5,2.3,5,5V80.5z"/><line x1="34.2" x2="68" y1="61" y2="61" fill="none" stroke="#1391D0" stroke-miterlimit="10" stroke-width="2.1"/><line x1="34.2" x2="68" y1="66.9" y2="66.9" fill="none" stroke="#1391D0" stroke-miterlimit="10" stroke-width="2.1"/><line x1="34.2" x2="68" y1="72.9" y2="72.9" fill="none" stroke="#1391D0" stroke-miterlimit="10" stroke-width="2.1"/><line x1="34.2" x2="68" y1="28.3" y2="28.3" fill="none" stroke="#1391D0" stroke-miterlimit="10" stroke-width="2.1"/><line x1="34.2" x2="56.5" y1="34.3" y2="34.3" fill="none" stroke="#1391D0" stroke-miterlimit="10" stroke-width="2.1"/><rect width="31.7" height="11.9" x="35.1" y="41.6" fill="none" stroke="#1391D0" stroke-miterlimit="10" stroke-width="2.1"/><g><polygon fill="#1790CF" stroke="#1391D0" stroke-miterlimit="10" stroke-width="2" points="68.7 29.8 61.7 35.8 61.7 15.3 68.7 15.3"/><polygon fill="#1790CF" stroke="#1391D0" stroke-miterlimit="10" stroke-width="2" points="64.5 29.8 71.5 35.8 71.5 15.3 64.5 15.3"/></g></g></svg>